<svg version="1.1" id="Capa_1" xmlns="http://www.w3.org/2000/svg" xmlns:xlink="http://www.w3.org/1999/xlink" x="0px" y="0px"
	 width="38.907px" height="38.907px" viewBox="0 0 38.907 38.907" style="enable-background:new 0 0 38.907 38.907;"
	 xml:space="preserve">
	<path fill="#306480" d="M15.611,3.706c0-2.422,1.72-3.706,3.842-3.706s3.842,1.283,3.842,3.706c0,2.421-1.721,5.06-3.842,5.06
		C17.33,8.766,15.611,6.127,15.611,3.706z M9.952,7.961c1.885,0,3.412-2.344,3.412-4.494c0-2.15-1.527-3.291-3.412-3.291
		c-1.885,0-3.412,1.141-3.412,3.291C6.538,5.617,8.066,7.961,9.952,7.961z M28.951,7.961c1.885,0,3.412-2.344,3.412-4.494
		c0-2.15-1.527-3.291-3.412-3.291c-1.886,0-3.412,1.141-3.412,3.291C25.539,5.617,27.065,7.961,28.951,7.961z M34.184,9.425
		c-0.28-0.284-0.664-0.443-1.063-0.443h-3.235l-0.564,0.754l1.037,5.88l-1.406,1.325l-1.404-1.325l1.037-5.88L28.02,8.982h-3.231
		c-0.019,0-0.035,0.004-0.053,0.005c0.495,0.112,0.959,0.359,1.319,0.725c0.502,0.504,0.785,1.203,0.779,1.917l-0.096,10.529
		c-0.012,1.057-0.598,1.941-1.453,2.377v8.199c0,1.104,0.896,2,2,2c0.695,0,1.309-0.357,1.666-0.898
		c0.357,0.541,0.971,0.898,1.668,0.898c1.104,0,2-0.896,2-2V21.268c0.129,0.037,0.262,0.063,0.402,0.064
		c0.852,0.034,1.506-0.658,1.514-1.486l0.086-9.351C34.623,10.094,34.467,9.71,34.184,9.425z M12.072,22.271l0.001-10.669
		c0-1.277,0.897-2.345,2.094-2.617c-0.016,0-0.031-0.004-0.046-0.004h-3.236L10.32,9.735l1.038,5.88L9.952,16.94l-1.406-1.325
		l1.038-5.88L9.019,8.981H5.787c-0.828,0-1.5,0.671-1.5,1.5l-0.001,9.476c0,0.828,0.671,1.5,1.5,1.5c0.176,0,0.343-0.036,0.5-0.092
		v11.367c0,1.104,0.896,2,2,2c0.697,0,1.309-0.357,1.667-0.898c0.358,0.541,0.97,0.898,1.667,0.898c1.104,0,2-0.896,2-2v-8.037
		C12.707,24.264,12.072,23.346,12.072,22.271z M25.344,10.415c-0.316-0.32-0.748-0.5-1.199-0.5h-3.644l-0.637,0.849l1.168,6.62
		l-1.583,1.492l-1.583-1.492l1.169-6.62l-0.637-0.849H14.76c-0.933,0-1.689,0.756-1.689,1.688l-0.001,10.67
		c0,0.933,0.756,1.688,1.688,1.688c0.199,0,0.386-0.041,0.563-0.104v12.798c0,1.243,1.008,2.252,2.252,2.252
		c0.785,0,1.474-0.402,1.877-1.011c0.403,0.607,1.092,1.011,1.875,1.011c1.244,0,2.252-1.009,2.252-2.252V23.747
		c0.146,0.042,0.295,0.072,0.455,0.074c0.959,0.038,1.693-0.741,1.703-1.673l0.096-10.528
		C25.837,11.168,25.662,10.735,25.344,10.415z"/>
</svg>
