<svg version="1.1" id="Capa_1" xmlns="http://www.w3.org/2000/svg" xmlns:xlink="http://www.w3.org/1999/xlink" x="0px" y="0px"
	 width="35px" height="35px" viewBox="0 0 35 35" style="enable-background:new 0 0 35 35;" xml:space="preserve">
	<path fill="#306480" d="M16.01,18.002c0.279-0.008,0.49-0.019,0.633-0.023v4.146c-0.658-0.031-1.194-0.078-1.607-0.142
		c-0.416-0.063-0.729-0.196-0.941-0.399c-0.331-0.332-0.495-0.801-0.495-1.408c0-1.01,0.213-1.618,0.644-1.828
		c0.168-0.09,0.344-0.155,0.526-0.202c0.184-0.047,0.366-0.081,0.551-0.101C15.499,18.026,15.729,18.014,16.01,18.002z
		 M11.579,10.092h11.845c0.71,0,1.287-0.577,1.287-1.288c0-0.711-0.577-1.288-1.287-1.288H11.579c-0.711,0-1.288,0.577-1.288,1.288
		C10.291,9.517,10.868,10.092,11.579,10.092z M11.936,6.869H23.07c0.365-0.409,0.611-1.093,0.684-1.665
		c0.158-1.277,1.146-4.566,0-5.148c-1.037-0.525-2.591,2.839-3.75,2.75c-0.881-0.067-1.616-2.5-2.5-2.5
		c-0.928,0-1.698,2.572-2.625,2.625c-1.153,0.066-2.584-3.378-3.625-2.875c-1.159,0.56-0.159,3.871,0,5.148
		C11.322,5.774,11.568,6.458,11.936,6.869z M20.232,24.75c-0.407-0.09-1.053-0.144-1.931-0.16v4.34c1.188,0,1.996-0.124,2.425-0.37
		c0.198-0.153,0.369-0.341,0.512-0.563c0.142-0.224,0.214-0.617,0.214-1.181c0-0.672-0.103-1.162-0.302-1.472
		C20.947,25.039,20.645,24.84,20.232,24.75z M30.391,34.442c-0.664,0.71-1.795,0.731-2.522,0.052
		c-0.066-0.062-0.122-0.131-0.179-0.199H7.301c-0.031,0.039-0.057,0.082-0.092,0.119c-0.681,0.73-1.808,0.785-2.517,0.121
		C3.982,33.871,3.961,32.74,4.64,32.01c0.154-0.166,0.334-0.291,0.524-0.387V16.432c0-1.1,0.765-2.475,1.697-3.056l4.275-2.659
		c0.125,0.013,0.25,0.027,0.379,0.027h11.961c0.131,0,0.254-0.015,0.379-0.027l4.276,2.659c0.935,0.581,1.698,1.956,1.698,3.056
		v15.203c0.153,0.076,0.304,0.17,0.438,0.293C31,32.606,31.055,33.732,30.391,34.442z M24.292,26.728
		c0-1.62-0.338-2.769-1.015-3.442c-0.473-0.418-1.084-0.701-1.84-0.848c-0.754-0.146-1.799-0.25-3.136-0.312v-4.146
		c0.121,0.013,0.365,0.021,0.734,0.027c0.365,0.004,0.668,0.025,0.898,0.062c0.232,0.036,0.453,0.116,0.662,0.24
		c0.203,0.125,0.348,0.323,0.432,0.597c0.09,0.271,0.133,0.684,0.133,1.229h2.592c0-1.004-0.106-1.805-0.315-2.4
		c-0.213-0.597-0.533-1.045-0.965-1.347c-0.433-0.302-0.966-0.507-1.601-0.617c-0.637-0.11-1.49-0.182-2.57-0.215v-1.488h-1.659
		v1.488c-1.242,0-2.267,0.079-3.072,0.238c-0.807,0.159-1.461,0.543-1.965,1.154c-0.539,0.665-0.81,1.743-0.81,3.233
		c0,1.146,0.189,2.008,0.576,2.592c0.246,0.367,0.551,0.661,0.909,0.878c0.36,0.217,0.765,0.383,1.204,0.493
		c0.443,0.11,0.951,0.198,1.527,0.267c0.574,0.064,1.117,0.127,1.627,0.184v4.339c-0.555,0-1.121-0.026-1.701-0.08
		c-0.395-0.045-0.705-0.138-0.928-0.276c-0.227-0.141-0.406-0.375-0.545-0.703c-0.111-0.273-0.168-0.84-0.168-1.699h-2.592
		c0,1.07,0.073,1.906,0.221,2.506c0.148,0.602,0.482,1.125,1.006,1.574c0.508,0.433,1.152,0.725,1.928,0.875
		c0.777,0.15,1.703,0.229,2.779,0.229v1.614h1.66v-1.614c1.795,0,3.184-0.242,4.166-0.729C23.646,30.049,24.252,28.75,24.292,26.728
		z"/>
</svg>