<svg id="Layer_1" data-name="Layer 1" xmlns="http://www.w3.org/2000/svg" viewBox="0 0 253.88 60.51"><defs><style>.cls-1{fill:#60c8ff;}.cls-2{fill:#fefefe;}</style></defs><title>hovr logo</title><path class="cls-1" d="M304.51,406c0-8.8,0-17.6,0-26.39,0-1.82.24-3.45,2.14-4.3a3.66,3.66,0,0,1,5.21,3.28c0,5.4,0,10.8,0,16.2,0,.41-.26,1,.29,1.17s.85-.28,1.18-.63a14,14,0,0,1,9.91-4.84c3-.13,5.89-.36,8.77.62,4.32,1.47,6.42,4.75,7.5,8.92,1,3.76.82,7.61.84,11.44,0,7.32,0,14.64,0,21.95,0,1.24-.27,1.48-1.47,1.38a31,31,0,0,0-4.91,0c-1,.07-1.53-.22-1.51-1.32.07-3.72.16-7.43.13-11.15-.05-6.08.24-12.16-.2-18.23a7.79,7.79,0,0,0-7-7.5c-4.6-.43-10.87,2.32-12.4,7.6a29,29,0,0,0-1.2,8.26c0,7,0,14,.06,21,0,1-.35,1.43-1.33,1.37a36.55,36.55,0,0,0-4.68,0,1.17,1.17,0,0,1-1.42-1.33q0-13.74,0-27.47Z" transform="translate(-199.47 -375.02)"/><path class="cls-1" d="M387.79,412.26A23.17,23.17,0,0,1,382,428.43a19.74,19.74,0,0,1-9,6,18.09,18.09,0,0,1-9.49.68,21.28,21.28,0,0,1-11.24-6.39,22.64,22.64,0,0,1-5.46-10.88,24.8,24.8,0,0,1,.41-11.7,22.1,22.1,0,0,1,7.48-11.54,18.37,18.37,0,0,1,15.08-4.13c8.8,1.34,13.95,6.78,16.9,14.86C387.54,407.77,387.4,410.22,387.79,412.26Zm-7.39.49a17.6,17.6,0,0,0-2.28-8.84,13,13,0,0,0-11.43-7.09,10.58,10.58,0,0,0-7.12,2.75,18.24,18.24,0,0,0-5.6,9.25c-1.52,5.18,1,14,6,17.5,3.71,2.59,9.4,3.19,13.25.51C378.12,423.41,380.28,418.61,380.4,412.75Z" transform="translate(-199.47 -375.02)"/><path class="cls-1" d="M227.32,397.73H207.66a25.94,25.94,0,0,0-6.94,1.17c-.73.2-1.32.28-1.25-.75.29-4.15,0-8.31.13-12.47a10.62,10.62,0,0,1,2.84-6.8,11.08,11.08,0,0,1,6.17-3.61A10.33,10.33,0,0,1,216.7,377a9.94,9.94,0,0,1,4.76,9.08c-.07,2.48,0,5,0,7.43,0,1.36.3,1.73,1.68,1.75,3.51,0,7,0,10.54.05a1.34,1.34,0,0,0,1.51-1.47c0-2.07,0-4.15,0-6.23a14.86,14.86,0,0,1,.46-4.63,11,11,0,0,1,6.27-7,10.63,10.63,0,0,1,12.4,2.75,11.72,11.72,0,0,1,2.86,7.07,13.27,13.27,0,0,1-1.59,6.89c-1.82,3.51-4.81,5-8.59,5.06-6.55.08-13.11,0-19.67,0Zm-23-7.06h0c0-1.28,0-2.56,0-3.84A6.58,6.58,0,0,1,207,381a6.14,6.14,0,0,1,8.6,1.38,9.48,9.48,0,0,1,1.3,5.14c0,2.07-.07,4.15-.11,6.23a1.22,1.22,0,0,0,1.3,1.39c.85,0,1.06-.6,1.06-1.3,0-2.76,0-5.52-.08-8.28a9,9,0,0,0-7.42-7.92c-5.11-.66-9.83,3.92-9.37,8.84a45.15,45.15,0,0,1,0,8.62c-.08.78-.09,1.52.95,1.56s1.2-.59,1.19-1.43C204.33,393.71,204.34,392.19,204.34,390.67Zm35.81-1.36h0c0-1,0-1.92,0-2.88a5.78,5.78,0,0,1,7.06-6.53,6.34,6.34,0,0,1,5.14,6.21,34.85,34.85,0,0,1-.13,4.68c-.06.46-.1,1.07.48,1.21s.75-.46.95-.88c.77-1.65.56-3.44.78-5.17.54-4.2-3.64-8.37-8-8.4a8.52,8.52,0,0,0-8.32,6.12c-1,3.41-.4,6.9-.57,10.36,0,.83.61,1.16,1.39,1.16a1.08,1.08,0,0,0,1.18-1.21C240.17,392.42,240.15,390.87,240.15,389.31Zm-26,.47h0c0-1.24,0-2.47,0-3.71a3.62,3.62,0,0,0-2.38-3.36c-2-.51-3.63.16-4.31,1.79a5.91,5.91,0,0,0-.49,2.44c0,2.4,0,4.8-.1,7.19,0,.8,0,1.35.91,1.47s1.49-.18,1.49-1.2c0-.64,0-1.28,0-1.92,0-2.12,0-4.24,0-6.36a1.29,1.29,0,0,1,1.16-1.43c.79-.11,1.16.44,1.37,1.09a3.72,3.72,0,0,1,.14,1.06c0,2.24,0,4.47-.07,6.71,0,.88.29,1.56,1.23,1.59s1.09-.76,1.1-1.52C214.17,392.34,214.16,391.06,214.16,389.78Zm28.4.15h0v4c0,.74.28,1.26,1.09,1.27s1.22-.47,1.25-1.28c0-.12,0-.24,0-.36,0-2.23-.05-4.47-.08-6.7a3.58,3.58,0,0,1,.34-1.51,1,1,0,0,1,1.14-.68,1.17,1.17,0,0,1,1,.88,4.23,4.23,0,0,1,.11,1.07c0,2.27,0,4.55,0,6.82,0,.67-.15,1.45.85,1.56a1.48,1.48,0,0,0,1.57-1.55q0-3.48,0-7a4,4,0,0,0-.81-2.69,3.52,3.52,0,0,0-4-1,3.7,3.7,0,0,0-2.34,3.35C242.5,387.37,242.56,388.66,242.56,389.93Z" transform="translate(-199.47 -375.02)"/><path class="cls-1" d="M410.39,435.53a4.1,4.1,0,0,1-3.88-2.62c-.67-1.83-1.29-3.67-2-5.5-2.3-6.36-4.7-12.7-6.91-19.09-1.72-5-3.54-9.89-5.32-14.84-.48-1.35-.1-1.89,1.28-1.66a18.63,18.63,0,0,0,4.54-.06,1.66,1.66,0,0,1,2,1.42c.92,3.09,2,6.12,3,9.19.78,2.42,1.47,4.87,2.23,7.3.32,1,.7,2,1.07,3,1,2.81,1.63,5.74,2.84,8.48a13.47,13.47,0,0,1,.48,2.22.81.81,0,0,0,.82.74c.52,0,.59-.46.67-.85.61-2.69,1.72-5.22,2.51-7.85,1.11-3.62,2.36-7.18,3.55-10.78,1.34-4.08,2.7-8.16,4-12.25a.82.82,0,0,1,1-.68,24,24,0,0,0,5.74,0c.82-.09,1.17.24.84,1.16-1.48,4-2.88,8.1-4.34,12.14-.94,2.58-2,5.13-2.9,7.72-1.08,3-2.08,6-3.15,9q-1.9,5.34-3.87,10.65A4.55,4.55,0,0,1,410.39,435.53Z" transform="translate(-199.47 -375.02)"/><path class="cls-1" d="M223,414.48c4.76,0,9.52-.18,14.27.06,3.68.19,7.34-.22,11-.09a38.32,38.32,0,0,0,6.88-.87,2.13,2.13,0,0,0,.64-.32c.36-.23.69-.66,1.16-.34s.36.78.35,1.22c0,3.87.13,7.76-.2,11.61a10.26,10.26,0,0,1-4.58,7.55,11,11,0,0,1-17.36-9.43c0-1.83,0-3.67,0-5.5,0-1.11-.43-1.55-1.58-1.56-3.58-.05-7.15.34-10.73,0-1-.09-1.42.44-1.43,1.42,0,2.52.06,5.05-.12,7.56-.24,3.51-2.16,6.05-5.07,7.92a11.07,11.07,0,0,1-5,1.62,10.06,10.06,0,0,1-6.47-1.69c-3.22-2.07-5.33-5.05-5.14-8.9.23-4.55,2.47-8.43,7.41-10a11.17,11.17,0,0,1,3.21-.28c2.12,0,4.23,0,6.35,0H223Zm31.34,7.15h0c0-1.64,0-3.28,0-4.92,0-.6,0-1.34-.81-1.32s-1.26.53-1.23,1.43c0,2.32,0,4.64.12,6.95a6,6,0,0,1-1.08,3.93,6.62,6.62,0,0,1-4.94,3c-3.19.3-6.41-2.93-6.37-6.25q0-3.23,0-6.47a1,1,0,0,0-1.2-1.16c-.66,0-1.29.16-1.3.93a48,48,0,0,0,.06,6.57,9.57,9.57,0,0,0,1,3.8,8.59,8.59,0,0,0,8.14,4.67c3.54-.09,8-3.83,7.62-7.59A33,33,0,0,1,254.35,421.63Zm-35.31,0c0-1.16,0-2.32,0-3.48,0-.71-.17-1.29-1-1.28a1,1,0,0,0-1.15,1.2c0,.72,0,1.44,0,2.15a24,24,0,0,1-.27,5.62,6.24,6.24,0,0,1-4.72,4.76c-2.2.68-4-.35-5.55-1.73a6.33,6.33,0,0,1-2.05-5.28,11,11,0,0,0-.11-2.87c0-.19-.05-.41-.28-.49s-.3.05-.36.21a12.31,12.31,0,0,0-1.06,2.27,8,8,0,0,0,4.66,9.3,8.36,8.36,0,0,0,10.55-3.12C219.1,426.61,219.21,424.14,219,421.6Zm28.33-.71h.11c0,1.12,0,2.24,0,3.35,0,.79-.34,1.42-1.24,1.49s-1.19-.53-1.42-1.21a4,4,0,0,1-.09-1.42c0-1.68.06-3.36.05-5a1.1,1.1,0,0,0-1.18-1.22.89.89,0,0,0-1,1c0,2.28,0,4.56.06,6.83a3.39,3.39,0,0,0,3.15,3.07c2.19.13,3.34-.65,3.77-2.64.54-2.49.05-5,.23-7.53.07-.83-.7-.95-1.38-1s-1,.4-1,1.15C247.4,418.81,247.37,419.85,247.37,420.89Zm-33.19.59h-.1c0-1.2,0-2.4,0-3.59,0-.75-.47-1.07-1.19-1a1,1,0,0,0-1,1.21c.24,1.71,0,3.43.13,5.14a3.27,3.27,0,0,1-.29,1.63c-.22.51-.53.89-1.15.85a1.29,1.29,0,0,1-1.24-1,4.71,4.71,0,0,1-.13-1.3c0-1.68,0-3.35,0-5,0-.53-.07-1.11-.7-1.25s-1,.3-1.32.7a1.48,1.48,0,0,0-.29,1.12c0,1.43.06,2.86,0,4.3-.07,1.67.28,3.53,2,4.19,2.69,1.06,5.34-.34,5.27-3.48C214.16,423.16,214.18,422.32,214.18,421.48Z" transform="translate(-199.47 -375.02)"/><path class="cls-1" d="M434.16,420.45c0-5.43-.17-10.89.28-16.3a13.8,13.8,0,0,1,7.48-11.27,20.38,20.38,0,0,1,8.88-2.55,3.87,3.87,0,0,0,.48,0c2-.3,2-.3,2,1.85,0,1.36,0,2.72,0,4.08,0,1-.32,1.46-1.42,1.41a10.87,10.87,0,0,0-7,2.19,8,8,0,0,0-3.34,6.58c-.11,4,0,7.92,0,11.88,0,5.08,0,10.16,0,15.24,0,1-.33,1.43-1.33,1.33a25.12,25.12,0,0,0-4.67,0c-.94.09-1.39-.32-1.39-1.31C434.17,429.17,434.16,424.81,434.16,420.45Z" transform="translate(-199.47 -375.02)"/><path class="cls-1" d="M199.86,410.05a2.23,2.23,0,0,1,.91-2,17.34,17.34,0,0,1,9.92-3.22c4.16-.23,8.32-.13,12.47-.15,5.67,0,11.34.16,17,.14,3.6,0,7.2-.1,10.78-.41a8.82,8.82,0,0,0,4.26-1.47c.33-.24.81-.6,1.15-.11s-.18.73-.45,1a11.44,11.44,0,0,1-6.25,3c-12,1.73-24.1.42-36.14.84-2.56.09-5.13,0-7.68.11a10.07,10.07,0,0,0-4.72,1.54C200.73,409.55,200.33,409.77,199.86,410.05Z" transform="translate(-199.47 -375.02)"/><path class="cls-1" d="M256.92,396.34a2.82,2.82,0,0,1-1.13,2.39,12.42,12.42,0,0,1-5.8,3.08c-4.5,1.29-9,.8-13.57.85q-12.64.12-25.3,0c-1.91,0-3.82.15-5.74.1a6.57,6.57,0,0,0-2.64.67,7.46,7.46,0,0,1-.89.35c-.49.14-1.16.44-1.38-.17s.5-.8.93-1.05a22.4,22.4,0,0,1,11.67-2.74q15.59,0,31.17,0a24.89,24.89,0,0,0,8.52-1A20.59,20.59,0,0,0,256.92,396.34Z" transform="translate(-199.47 -375.02)"/><path class="cls-1" d="M199.62,415.28c1.13-2.53,3.17-3.76,5.64-4.63,2.91-1,5.87-1,8.87-1,9.88,0,19.75,0,29.63,0,2.79,0,5.59.24,8.35-.45.93-.23,1.85-.49,2.77-.74.29-.08.62-.39.84,0s-.14.61-.35.82a7,7,0,0,1-2.36,1.39,22.82,22.82,0,0,1-8.91,1.48c-10.79.07-21.58,0-32.38.09a25.93,25.93,0,0,0-8.57,1.26c-1.08.39-1.83,1.29-2.91,1.61Z" transform="translate(-199.47 -375.02)"/><path class="cls-1" d="M281.34,418.51q0,7.5,0,15c0,.53.15,1.43-.48,1.42s-.37-.9-.36-1.36c.22-5.46.05-10.92,0-16.38s0-11.19,0-16.78V380c0-1.32,0-2.64,0-4,0-.31-.22-.84.32-.88s.47.55.5.9a18,18,0,0,1,0,1.8v40.64Z" transform="translate(-199.47 -375.02)"/><path class="cls-2" d="M204.34,390.67c0,1.52,0,3,0,4.56,0,.84-.25,1.46-1.19,1.43s-1-.78-.95-1.56a45.15,45.15,0,0,0,0-8.62c-.46-4.92,4.26-9.5,9.37-8.84a9,9,0,0,1,7.42,7.92c.1,2.76.06,5.52.08,8.28,0,.7-.21,1.31-1.06,1.3a1.22,1.22,0,0,1-1.3-1.39c0-2.08.14-4.16.11-6.23a9.48,9.48,0,0,0-1.3-5.14A6.14,6.14,0,0,0,207,381a6.58,6.58,0,0,0-2.67,5.83c0,1.28,0,2.56,0,3.84Z" transform="translate(-199.47 -375.02)"/><path class="cls-2" d="M240.15,389.31c0,1.56,0,3.11,0,4.67a1.08,1.08,0,0,1-1.18,1.21c-.78,0-1.43-.33-1.39-1.16.17-3.46-.41-6.95.57-10.36a8.52,8.52,0,0,1,8.32-6.12c4.34,0,8.52,4.2,8,8.4-.22,1.73,0,3.52-.78,5.17-.2.42-.34,1-.95.88s-.54-.75-.48-1.21a34.85,34.85,0,0,0,.13-4.68,6.34,6.34,0,0,0-5.14-6.21,5.78,5.78,0,0,0-7.06,6.53c0,1,0,1.92,0,2.88Z" transform="translate(-199.47 -375.02)"/><path class="cls-2" d="M214.16,389.78c0,1.28,0,2.56,0,3.84,0,.76-.11,1.55-1.1,1.52s-1.24-.71-1.23-1.59c0-2.24.06-4.47.07-6.71a3.72,3.72,0,0,0-.14-1.06c-.21-.65-.58-1.2-1.37-1.09a1.29,1.29,0,0,0-1.16,1.43c0,2.12,0,4.24,0,6.36,0,.64,0,1.28,0,1.92,0,1-.59,1.31-1.49,1.2s-.95-.67-.91-1.47c.11-2.39.13-4.79.1-7.19a5.91,5.91,0,0,1,.49-2.44c.68-1.63,2.33-2.3,4.31-1.79a3.62,3.62,0,0,1,2.38,3.36c0,1.24,0,2.47,0,3.71Z" transform="translate(-199.47 -375.02)"/><path class="cls-2" d="M242.56,389.93c0-1.27-.06-2.56,0-3.83a3.7,3.7,0,0,1,2.34-3.35,3.52,3.52,0,0,1,4,1,4,4,0,0,1,.81,2.69q0,3.46,0,7a1.48,1.48,0,0,1-1.57,1.55c-1-.11-.85-.89-.85-1.56,0-2.27,0-4.55,0-6.82a4.23,4.23,0,0,0-.11-1.07,1.17,1.17,0,0,0-1-.88,1,1,0,0,0-1.14.68,3.58,3.58,0,0,0-.34,1.51c0,2.23.06,4.47.08,6.7,0,.12,0,.24,0,.36,0,.81-.4,1.3-1.25,1.28s-1.09-.53-1.09-1.27v-4Z" transform="translate(-199.47 -375.02)"/><path class="cls-2" d="M254.35,421.63a33,33,0,0,0,0,3.59c.39,3.76-4.08,7.5-7.62,7.59a8.59,8.59,0,0,1-8.14-4.67,9.57,9.57,0,0,1-1-3.8,48,48,0,0,1-.06-6.57c0-.77.64-.92,1.3-.93a1,1,0,0,1,1.2,1.16q0,3.24,0,6.47c0,3.32,3.18,6.55,6.37,6.25a6.62,6.62,0,0,0,4.94-3,6,6,0,0,0,1.08-3.93c-.13-2.31-.07-4.63-.12-6.95,0-.9.4-1.41,1.23-1.43s.81.72.81,1.32c0,1.64,0,3.28,0,4.92Z" transform="translate(-199.47 -375.02)"/><path class="cls-2" d="M219,421.6c.17,2.54.06,5-1.38,7.26A8.36,8.36,0,0,1,207.11,432a8,8,0,0,1-4.66-9.3,12.31,12.31,0,0,1,1.06-2.27c.06-.16.18-.27.36-.21s.24.3.28.49a11,11,0,0,1,.11,2.87,6.33,6.33,0,0,0,2.05,5.28c1.57,1.38,3.35,2.41,5.55,1.73a6.24,6.24,0,0,0,4.72-4.76,24,24,0,0,0,.27-5.62c0-.71,0-1.43,0-2.15a1,1,0,0,1,1.15-1.2c.87,0,1,.57,1,1.28C219.05,419.28,219,420.44,219,421.6Z" transform="translate(-199.47 -375.02)"/><path class="cls-2" d="M247.37,420.89c0-1,0-2.08,0-3.11,0-.75.28-1.15,1-1.15s1.45.13,1.38,1c-.18,2.51.31,5-.23,7.53-.43,2-1.58,2.77-3.77,2.64a3.39,3.39,0,0,1-3.15-3.07c-.1-2.27-.05-4.55-.06-6.83a.89.89,0,0,1,1-1,1.1,1.1,0,0,1,1.18,1.22c0,1.68,0,3.36-.05,5a4,4,0,0,0,.09,1.42c.23.68.56,1.27,1.42,1.21s1.21-.7,1.24-1.49c0-1.11,0-2.23,0-3.35Z" transform="translate(-199.47 -375.02)"/><path class="cls-2" d="M214.18,421.48c0,.84,0,1.68,0,2.51.07,3.14-2.58,4.54-5.27,3.48-1.7-.66-2-2.52-2-4.19.07-1.44,0-2.87,0-4.3a1.48,1.48,0,0,1,.29-1.12c.35-.4.75-.81,1.32-.7s.69.72.7,1.25c0,1.68,0,3.35,0,5a4.71,4.71,0,0,0,.13,1.3,1.29,1.29,0,0,0,1.24,1c.62,0,.93-.34,1.15-.85a3.27,3.27,0,0,0,.29-1.63c-.11-1.71.11-3.43-.13-5.14a1,1,0,0,1,1-1.21c.72-.05,1.17.27,1.19,1,0,1.19,0,2.39,0,3.59Z" transform="translate(-199.47 -375.02)"/></svg>