<svg version="1.1" id="Capa_1" xmlns="http://www.w3.org/2000/svg" xmlns:xlink="http://www.w3.org/1999/xlink" x="0px" y="0px"
	 width="37.211px" height="37.211px" viewBox="0 0 37.211 37.211" style="enable-background:new 0 0 37.211 37.211;"
	 xml:space="preserve">
	<path fill="#306480" d="M30.113,33.584c-0.289-6.602-2.951-12.352-6.84-14.979c3.891-2.626,6.553-8.377,6.84-14.978
		c0.639-0.314,0.992-0.657,0.992-1.02C31.105,1.167,25.51,0,18.605,0c-6.904,0-12.5,1.167-12.5,2.608
		c0,0.362,0.354,0.706,0.992,1.019c0.289,6.6,2.951,12.352,6.84,14.979c-3.89,2.625-6.552,8.377-6.84,14.978
		c-0.638,0.313-0.992,0.657-0.992,1.021c0,1.439,5.596,2.607,12.5,2.607c6.904,0,12.5-1.167,12.5-2.607
		C31.105,34.24,30.752,33.896,30.113,33.584z M16.259,19.555c0.345-0.136,0.578-0.519,0.578-0.949c0-0.432-0.233-0.814-0.578-0.951
		c-4.048-1.588-6.971-6.977-7.435-13.426c2.29,0.601,5.816,0.987,9.781,0.987s7.491-0.386,9.781-0.987
		C27.922,10.678,25,16.067,20.951,17.655c-0.346,0.136-0.578,0.519-0.578,0.951c0,0.431,0.232,0.813,0.578,0.949
		c4.049,1.588,6.971,6.977,7.436,13.426c-0.368-0.097-0.77-0.187-1.199-0.271c-1.318-5.335-8.582-10.013-8.582-10.013
		s-7.263,4.678-8.582,10.013c-0.429,0.084-0.831,0.175-1.199,0.271C9.289,26.531,12.211,21.143,16.259,19.555z M18.605,17.377
		c0,0-1.573-1.237-3.387-3.216c4.938-1.059,8.959-3.403,11.14-6.423C24.031,13.107,18.605,17.377,18.605,17.377z"/>
</svg>